<svg width="42" height="42" viewBox="0 0 42 42" fill="none" xmlns="http://www.w3.org/2000/svg">
<path d="M21.0248 1.59326C16.7346 4.6924 14.5361 9.10568 12.51 13.1826C16.0701 11.1647 20.8525 10.4838 22.9197 10.8283C17.6861 11.6979 14.0604 12.9447 11.0744 16.1029C10.8939 16.4721 10.7381 16.7838 10.5494 17.1776C20.0158 14.8971 21.5744 14.9627 31.1311 17.1201C30.1877 13.0104 28.1369 10.3854 24.9377 5.40033C28.3748 9.71272 35.1178 17.0709 34.8061 15.6354C32.9275 7.03275 26.5947 1.92713 21.0248 1.59326ZM7.21895 18.974C4.67598 19.5811 2.79746 20.4096 2.06738 21.1643C2.14121 22.124 2.61699 22.9772 3.50293 23.7893C4.4709 24.6752 5.93105 25.4627 7.71113 26.0944C7.9318 26.1682 8.15328 26.242 8.37559 26.3158C7.68652 25.4135 7.45684 24.1584 7.30918 22.9444C7.30918 21.6811 7.06309 20.1963 7.21895 18.974ZM34.7814 18.974C34.9619 20.3029 34.8307 21.8041 34.6912 22.9444C34.5436 24.1584 34.3139 25.4135 33.6248 26.3158C35.2818 25.7416 37.2834 24.8721 38.4975 23.7893C39.3834 22.9772 39.8592 22.124 39.933 21.1643C39.2029 20.4096 37.3326 19.5811 34.7814 18.974ZM12.2721 18.9987L11.6979 20.1471H19.8025L19.2283 18.9987H12.2721ZM22.7721 18.9987L22.1979 20.1471H30.3025L29.7283 18.9987H22.7721ZM9.76191 19.7697C9.37637 19.8764 8.99082 19.983 8.61348 20.1061C8.69551 21.7385 8.66269 24.0108 9.56504 25.3971H9.76191V19.7697ZM32.2385 19.7697V25.3971H32.4354C33.2967 23.699 33.3623 21.9682 33.3869 20.1061C33.0096 19.983 32.624 19.8764 32.2385 19.7697ZM11.2467 21.6237C11.2221 23.1658 11.4107 24.8639 11.7553 26.1928C13.4861 25.0361 15.1924 24.0846 17.0627 24.0846C17.3252 24.0846 17.5877 24.101 17.8338 24.1174L18.2604 22.8295C17.801 23.2971 17.2021 23.5596 16.3572 23.5268C14.29 23.4612 13.5764 22.6162 13.2811 21.6237H11.2467ZM20.2209 21.6237L19.2037 24.6752L21.0002 26.9229L22.7967 24.6752L21.7795 21.6237H20.2209ZM28.7193 21.6237C28.424 22.6162 27.7104 23.4612 25.6432 23.5268C24.7982 23.5596 24.1994 23.2971 23.74 22.8295L24.1666 24.1174C24.4209 24.0928 24.6834 24.0846 24.9377 24.0846C26.808 24.0846 28.5143 25.0361 30.2451 26.1928C30.6061 24.544 30.8029 23.1084 30.7537 21.6237H28.7193ZM17.0627 25.5612C15.4221 25.5612 13.5354 26.7506 11.4107 28.219C9.83574 29.31 8.1377 30.524 6.21816 31.369C8.56426 31.8694 11.6158 31.7627 14.2736 31.1557C16.0209 30.7619 17.5959 30.1631 18.6787 29.474C19.376 29.0229 19.8354 28.5635 20.0732 28.1287L18.0881 25.6432C17.7846 25.594 17.44 25.5612 17.0627 25.5612ZM24.9377 25.5612C24.5604 25.5612 24.2158 25.594 23.9123 25.6432L21.9271 28.1287C22.165 28.5635 22.6244 29.0229 23.3217 29.474C24.4045 30.1631 25.9795 30.7619 27.7268 31.1557C30.3846 31.7627 33.4361 31.8694 35.7822 31.369C33.8627 30.524 32.1646 29.31 30.5896 28.219C28.465 26.7506 26.5783 25.5612 24.9377 25.5612ZM21.0002 29.392C20.6229 29.8596 20.1307 30.2779 19.5729 30.6471H22.4275C21.8697 30.2779 21.3775 29.8596 21.0002 29.392ZM16.349 32.1237C15.783 32.3041 15.2006 32.46 14.6018 32.5994C13.8225 32.7799 13.0268 32.9194 12.2311 33.0178C12.7314 34.6256 13.3877 36.258 14.1178 37.792L14.126 37.8084C14.4787 37.2588 14.8971 36.7338 15.2334 36.1842C15.0365 37.3244 14.9627 38.4729 15.0447 39.6131C15.1842 39.8838 15.3318 40.1463 15.4795 40.4088H26.5209C26.8162 39.892 27.0951 39.367 27.3658 38.8338C27.8088 37.0373 27.6857 35.3229 27.8088 33.5674C28.0631 34.5108 28.3092 35.4541 28.5061 36.4139C28.9818 35.2983 29.4166 34.1498 29.7693 33.0178C28.9736 32.9194 28.1779 32.7799 27.3986 32.5994C26.7998 32.46 26.2174 32.3041 25.6514 32.1237H16.349Z" fill="white"/>
</svg>
