<svg width="53" height="60" viewBox="0 0 53 60" fill="none" xmlns="http://www.w3.org/2000/svg">
<g filter="url(#filter0_d_59_567)">
<g filter="url(#filter1_d_59_567)">
<path d="M39.4 29.2571V16.9714M39.4 16.9714V10.8286C39.4 6.19563 39.4 3.87854 37.9601 2.43989C36.5202 1.00123 34.2044 1 29.5714 1H14.8286C10.1956 1 7.87854 1 6.43989 2.43989C5.00123 3.87977 5 6.19563 5 10.8286V50.1429H39.4V41.5429C39.4 41.5429 48 41.5429 48 34.1714V24.3429C48 16.9714 39.4 16.9714 39.4 16.9714ZM13.6 23.1143V1M22.2 23.1143V1M30.8 23.1143V1M11.1429 1H33.2571" stroke="#7EB693" stroke-width="2" stroke-linecap="round" stroke-linejoin="round" shape-rendering="crispEdges"/>
</g>
</g>
<defs>
<filter id="filter0_d_59_567" x="0" y="0" width="53" height="59.1428" filterUnits="userSpaceOnUse" color-interpolation-filters="sRGB">
<feFlood flood-opacity="0" result="BackgroundImageFix"/>
<feColorMatrix in="SourceAlpha" type="matrix" values="0 0 0 0 0 0 0 0 0 0 0 0 0 0 0 0 0 0 127 0" result="hardAlpha"/>
<feOffset dy="4"/>
<feGaussianBlur stdDeviation="2"/>
<feComposite in2="hardAlpha" operator="out"/>
<feColorMatrix type="matrix" values="0 0 0 0 0 0 0 0 0 0 0 0 0 0 0 0 0 0 0.25 0"/>
<feBlend mode="normal" in2="BackgroundImageFix" result="effect1_dropShadow_59_567"/>
<feBlend mode="normal" in="SourceGraphic" in2="effect1_dropShadow_59_567" result="shape"/>
</filter>
<filter id="filter1_d_59_567" x="0" y="0" width="53" height="59.1428" filterUnits="userSpaceOnUse" color-interpolation-filters="sRGB">
<feFlood flood-opacity="0" result="BackgroundImageFix"/>
<feColorMatrix in="SourceAlpha" type="matrix" values="0 0 0 0 0 0 0 0 0 0 0 0 0 0 0 0 0 0 127 0" result="hardAlpha"/>
<feOffset dy="4"/>
<feGaussianBlur stdDeviation="2"/>
<feComposite in2="hardAlpha" operator="out"/>
<feColorMatrix type="matrix" values="0 0 0 0 0 0 0 0 0 0 0 0 0 0 0 0 0 0 0.25 0"/>
<feBlend mode="normal" in2="BackgroundImageFix" result="effect1_dropShadow_59_567"/>
<feBlend mode="normal" in="SourceGraphic" in2="effect1_dropShadow_59_567" result="shape"/>
</filter>
</defs>
</svg>
