<svg width="47" height="47" viewBox="0 0 47 47" fill="none" xmlns="http://www.w3.org/2000/svg">
<path d="M28.3497 25.4132L25.5322 28.489M21.2232 16.5L21.2232 14L21.2232 12.0566M20.6291 26.9506V32.1007M27.9995 20.747H29.9995L30.7986 20.747M11.0955 21.4952H15.6944M10.8893 12.1107L17.5564 17.9938M24.6818 17.12L30.6823 10.4355M17.4053 25.0324L12.0939 30.9676M23.4997 1.55225C11.3783 1.55225 1.55176 11.3788 1.55176 23.5002C1.55176 35.6215 11.3783 45.4481 23.4997 45.4481C28.6141 45.4376 33.5643 43.6413 37.4953 40.3694L20.231 23.2245C20.0393 23.0344 19.9307 22.7762 19.929 22.5062C19.9273 22.2363 20.0326 21.9767 20.2218 21.7841L20.2248 21.7811L21.7244 20.2723C21.9145 20.0806 22.1728 19.972 22.4427 19.9703C22.7127 19.9686 22.9723 20.0739 23.1648 20.2631L23.1679 20.2662L40.4343 37.4111C43.6641 33.4935 45.4358 28.5774 45.4476 23.5002C45.4476 11.3788 35.621 1.55225 23.4997 1.55225Z" stroke="white" stroke-width="2" stroke-linecap="round" stroke-linejoin="round"/>
</svg>
